<svg width="24" height="24" viewBox="0 0 24 24" fill="none" xmlns="http://www.w3.org/2000/svg">
<path d="M11.6757 1.53743C12.206 1.52732 12.7185 1.72823 13.1006 2.09595C13.4828 2.46368 13.7032 2.96813 13.7135 3.49836C14.8723 4.01916 15.8676 4.84553 16.5925 5.88888C17.3175 6.93223 17.7448 8.15321 17.8288 9.42094L17.8849 12.42C17.9721 13.0402 18.2037 13.6313 18.5611 14.1456C18.9185 14.66 19.3917 15.0832 19.9426 15.3812L3.94725 15.6892C4.48605 15.3702 4.94245 14.9292 5.2797 14.4016C5.61695 13.874 5.82565 13.2747 5.88899 12.6518L5.82995 9.65138C5.86511 8.38137 6.24526 7.14488 6.92963 6.07446C7.61401 5.00404 8.5768 4.14007 9.7148 3.57515C9.7047 3.04492 9.9056 2.53238 10.2733 2.15025C10.6411 1.76812 11.1455 1.54769 11.6757 1.53743V1.53743Z" stroke="black" stroke-linecap="round" stroke-linejoin="round"/>
<path d="M8.94477 15.5925L8.96397 16.5922C8.97925 17.3877 9.30995 18.1446 9.8833 18.6964C10.4567 19.2481 11.2257 19.5495 12.0213 19.5342C12.8169 19.519 13.5738 19.1883 14.1255 18.6149C14.6773 18.0416 14.9787 17.2725 14.9634 16.4769L14.9442 15.4773" stroke="black" stroke-linecap="round" stroke-linejoin="round"/>
</svg>
